<mxfile host="app.diagrams.net" modified="2024-03-13T18:11:44.733Z" agent="Mozilla/5.0 (Windows NT 10.0; Win64; x64) AppleWebKit/537.36 (KHTML, like Gecko) Chrome/121.0.0.0 Safari/537.36 OPR/107.0.0.0 (Edition Yx GX 03)" etag="MjeZafEwHySrsnQsCB2t" version="24.0.5" type="device">
  <diagram name="Страница — 1" id="CMJRwuyZi_Ei7DIzMuQI">
    <mxGraphModel dx="1361" dy="638" grid="1" gridSize="10" guides="1" tooltips="1" connect="1" arrows="1" fold="1" page="1" pageScale="1" pageWidth="827" pageHeight="1169" math="0" shadow="0">
      <root>
        <mxCell id="0" />
        <mxCell id="1" parent="0" />
        <mxCell id="Jj1JD8Dldo2RHYBznY76-5" value="Ticket" style="swimlane;fontStyle=0;childLayout=stackLayout;horizontal=1;startSize=26;horizontalStack=0;resizeParent=1;resizeParentMax=0;resizeLast=0;collapsible=1;marginBottom=0;align=center;fontSize=20;" vertex="1" parent="1">
          <mxGeometry x="50" y="200" width="160" height="116" as="geometry" />
        </mxCell>
        <mxCell id="Jj1JD8Dldo2RHYBznY76-6" value="&lt;font style=&quot;font-size: 16px;&quot;&gt;Id_scree&lt;/font&gt;&lt;span style=&quot;font-size: 16px; background-color: initial;&quot;&gt;ning : int&lt;/span&gt;" style="text;strokeColor=none;fillColor=none;spacingLeft=4;spacingRight=4;overflow=hidden;rotatable=0;points=[[0,0.5],[1,0.5]];portConstraint=eastwest;fontSize=12;whiteSpace=wrap;html=1;" vertex="1" parent="Jj1JD8Dldo2RHYBznY76-5">
          <mxGeometry y="26" width="160" height="30" as="geometry" />
        </mxCell>
        <mxCell id="Jj1JD8Dldo2RHYBznY76-7" value="&lt;span style=&quot;color: rgb(34, 34, 34); font-family: &amp;quot;Open Sans&amp;quot;, Tahoma, Verdana, Segoe, sans-serif; font-size: 16px; background-color: rgb(255, 255, 255);&quot;&gt;row : int&lt;/span&gt;" style="text;strokeColor=none;fillColor=none;spacingLeft=4;spacingRight=4;overflow=hidden;rotatable=0;points=[[0,0.5],[1,0.5]];portConstraint=eastwest;fontSize=12;whiteSpace=wrap;html=1;" vertex="1" parent="Jj1JD8Dldo2RHYBznY76-5">
          <mxGeometry y="56" width="160" height="30" as="geometry" />
        </mxCell>
        <mxCell id="Jj1JD8Dldo2RHYBznY76-8" value="&lt;font face=&quot;Open Sans, Tahoma, Verdana, Segoe, sans-serif&quot; color=&quot;#222222&quot;&gt;&lt;span style=&quot;font-size: 16px; background-color: rgb(255, 255, 255);&quot;&gt;seat : int&lt;/span&gt;&lt;/font&gt;&lt;div&gt;&lt;font face=&quot;Open Sans, Tahoma, Verdana, Segoe, sans-serif&quot; color=&quot;#222222&quot;&gt;&lt;span style=&quot;font-size: 16px; background-color: rgb(255, 255, 255);&quot;&gt;&lt;br&gt;&lt;/span&gt;&lt;/font&gt;&lt;/div&gt;" style="text;strokeColor=none;fillColor=none;spacingLeft=4;spacingRight=4;overflow=hidden;rotatable=0;points=[[0,0.5],[1,0.5]];portConstraint=eastwest;fontSize=12;whiteSpace=wrap;html=1;" vertex="1" parent="Jj1JD8Dldo2RHYBznY76-5">
          <mxGeometry y="86" width="160" height="30" as="geometry" />
        </mxCell>
        <mxCell id="Jj1JD8Dldo2RHYBznY76-9" value="Screening" style="swimlane;fontStyle=0;childLayout=stackLayout;horizontal=1;startSize=26;horizontalStack=0;resizeParent=1;resizeParentMax=0;resizeLast=0;collapsible=1;marginBottom=0;align=center;fontSize=20;" vertex="1" parent="1">
          <mxGeometry x="350" y="200" width="160" height="146" as="geometry" />
        </mxCell>
        <mxCell id="Jj1JD8Dldo2RHYBznY76-10" value="&lt;font style=&quot;font-size: 16px;&quot;&gt;Id_scrining : int&lt;/font&gt;" style="text;strokeColor=none;fillColor=none;spacingLeft=4;spacingRight=4;overflow=hidden;rotatable=0;points=[[0,0.5],[1,0.5]];portConstraint=eastwest;fontSize=12;whiteSpace=wrap;html=1;" vertex="1" parent="Jj1JD8Dldo2RHYBznY76-9">
          <mxGeometry y="26" width="160" height="30" as="geometry" />
        </mxCell>
        <mxCell id="Jj1JD8Dldo2RHYBznY76-20" value="" style="endArrow=none;html=1;rounded=0;" edge="1" parent="Jj1JD8Dldo2RHYBznY76-9">
          <mxGeometry relative="1" as="geometry">
            <mxPoint y="55" as="sourcePoint" />
            <mxPoint x="160" y="55" as="targetPoint" />
          </mxGeometry>
        </mxCell>
        <mxCell id="Jj1JD8Dldo2RHYBznY76-11" value="&lt;font face=&quot;Open Sans, Tahoma, Verdana, Segoe, sans-serif&quot; color=&quot;#222222&quot;&gt;&lt;span style=&quot;font-size: 16px; background-color: rgb(255, 255, 255);&quot;&gt;film_id : int&lt;/span&gt;&lt;/font&gt;&lt;div&gt;&lt;font face=&quot;Open Sans, Tahoma, Verdana, Segoe, sans-serif&quot; color=&quot;#222222&quot;&gt;&lt;span style=&quot;font-size: 16px; background-color: rgb(255, 255, 255);&quot;&gt;&lt;br&gt;&lt;/span&gt;&lt;/font&gt;&lt;/div&gt;" style="text;strokeColor=none;fillColor=none;spacingLeft=4;spacingRight=4;overflow=hidden;rotatable=0;points=[[0,0.5],[1,0.5]];portConstraint=eastwest;fontSize=12;whiteSpace=wrap;html=1;" vertex="1" parent="Jj1JD8Dldo2RHYBznY76-9">
          <mxGeometry y="56" width="160" height="30" as="geometry" />
        </mxCell>
        <mxCell id="Jj1JD8Dldo2RHYBznY76-21" value="&lt;span style=&quot;color: rgb(34, 34, 34); font-family: &amp;quot;Open Sans&amp;quot;, Tahoma, Verdana, Segoe, sans-serif; font-size: 16px; background-color: rgb(255, 255, 255);&quot;&gt;hall_id : int&lt;/span&gt;" style="text;strokeColor=none;fillColor=none;spacingLeft=4;spacingRight=4;overflow=hidden;rotatable=0;points=[[0,0.5],[1,0.5]];portConstraint=eastwest;fontSize=12;whiteSpace=wrap;html=1;" vertex="1" parent="Jj1JD8Dldo2RHYBznY76-9">
          <mxGeometry y="86" width="160" height="30" as="geometry" />
        </mxCell>
        <mxCell id="Jj1JD8Dldo2RHYBznY76-12" value="&lt;font face=&quot;Open Sans, Tahoma, Verdana, Segoe, sans-serif&quot; color=&quot;#222222&quot;&gt;&lt;span style=&quot;font-size: 16px; background-color: rgb(255, 255, 255);&quot;&gt;time : datetime&lt;/span&gt;&lt;/font&gt;&lt;div&gt;&lt;font face=&quot;Open Sans, Tahoma, Verdana, Segoe, sans-serif&quot; color=&quot;#222222&quot;&gt;&lt;span style=&quot;font-size: 16px; background-color: rgb(255, 255, 255);&quot;&gt;&lt;br&gt;&lt;/span&gt;&lt;/font&gt;&lt;/div&gt;" style="text;strokeColor=none;fillColor=none;spacingLeft=4;spacingRight=4;overflow=hidden;rotatable=0;points=[[0,0.5],[1,0.5]];portConstraint=eastwest;fontSize=12;whiteSpace=wrap;html=1;" vertex="1" parent="Jj1JD8Dldo2RHYBznY76-9">
          <mxGeometry y="116" width="160" height="30" as="geometry" />
        </mxCell>
        <mxCell id="Jj1JD8Dldo2RHYBznY76-22" value="" style="edgeStyle=entityRelationEdgeStyle;fontSize=12;html=1;endArrow=ERoneToMany;startArrow=ERmandOne;rounded=0;exitX=0;exitY=0.5;exitDx=0;exitDy=0;" edge="1" parent="1" source="Jj1JD8Dldo2RHYBznY76-10" target="Jj1JD8Dldo2RHYBznY76-6">
          <mxGeometry width="100" height="100" relative="1" as="geometry">
            <mxPoint x="210" y="370" as="sourcePoint" />
            <mxPoint x="310" y="270" as="targetPoint" />
          </mxGeometry>
        </mxCell>
        <mxCell id="Jj1JD8Dldo2RHYBznY76-23" value="Hall" style="swimlane;fontStyle=0;childLayout=stackLayout;horizontal=1;startSize=26;horizontalStack=0;resizeParent=1;resizeParentMax=0;resizeLast=0;collapsible=1;marginBottom=0;align=center;fontSize=20;" vertex="1" parent="1">
          <mxGeometry x="150" y="410" width="160" height="86" as="geometry" />
        </mxCell>
        <mxCell id="Jj1JD8Dldo2RHYBznY76-24" value="&lt;span style=&quot;font-size: 16px;&quot;&gt;ID : int&lt;/span&gt;" style="text;strokeColor=none;fillColor=none;spacingLeft=4;spacingRight=4;overflow=hidden;rotatable=0;points=[[0,0.5],[1,0.5]];portConstraint=eastwest;fontSize=12;whiteSpace=wrap;html=1;" vertex="1" parent="Jj1JD8Dldo2RHYBznY76-23">
          <mxGeometry y="26" width="160" height="30" as="geometry" />
        </mxCell>
        <mxCell id="Jj1JD8Dldo2RHYBznY76-26" value="&lt;div&gt;&lt;font face=&quot;Open Sans, Tahoma, Verdana, Segoe, sans-serif&quot; color=&quot;#222222&quot;&gt;&lt;span style=&quot;font-size: 16px; background-color: rgb(255, 255, 255);&quot;&gt;name : string&lt;/span&gt;&lt;/font&gt;&lt;/div&gt;" style="text;strokeColor=default;fillColor=none;spacingLeft=4;spacingRight=4;overflow=hidden;rotatable=0;points=[[0,0.5],[1,0.5]];portConstraint=eastwest;fontSize=12;whiteSpace=wrap;html=1;" vertex="1" parent="Jj1JD8Dldo2RHYBznY76-23">
          <mxGeometry y="56" width="160" height="30" as="geometry" />
        </mxCell>
        <mxCell id="Jj1JD8Dldo2RHYBznY76-33" value="&lt;font face=&quot;Open Sans, Tahoma, Verdana, Segoe, sans-serif&quot; color=&quot;#222222&quot;&gt;&lt;span style=&quot;font-size: 16px; background-color: rgb(255, 255, 255);&quot;&gt;price : int&lt;/span&gt;&lt;/font&gt;" style="text;strokeColor=default;fillColor=none;spacingLeft=4;spacingRight=4;overflow=hidden;rotatable=0;points=[[0,0.5],[1,0.5]];portConstraint=eastwest;fontSize=12;whiteSpace=wrap;html=1;" vertex="1" parent="1">
          <mxGeometry x="50" y="316" width="160" height="30" as="geometry" />
        </mxCell>
        <mxCell id="Jj1JD8Dldo2RHYBznY76-36" value="" style="edgeStyle=entityRelationEdgeStyle;fontSize=12;html=1;endArrow=ERmandOne;startArrow=ERmandOne;rounded=0;exitX=1;exitY=0.5;exitDx=0;exitDy=0;entryX=0;entryY=0.5;entryDx=0;entryDy=0;" edge="1" parent="1" source="Jj1JD8Dldo2RHYBznY76-24" target="Jj1JD8Dldo2RHYBznY76-21">
          <mxGeometry width="100" height="100" relative="1" as="geometry">
            <mxPoint x="330" y="490" as="sourcePoint" />
            <mxPoint x="430" y="390" as="targetPoint" />
          </mxGeometry>
        </mxCell>
        <mxCell id="Jj1JD8Dldo2RHYBznY76-40" value="Hall_Row" style="swimlane;fontStyle=0;childLayout=stackLayout;horizontal=1;startSize=26;horizontalStack=0;resizeParent=1;resizeParentMax=0;resizeLast=0;collapsible=1;marginBottom=0;align=center;fontSize=14;" vertex="1" parent="1">
          <mxGeometry x="550" y="410" width="160" height="126" as="geometry" />
        </mxCell>
        <mxCell id="Jj1JD8Dldo2RHYBznY76-41" value="&lt;font style=&quot;font-size: 16px;&quot;&gt;Id_hall : int&lt;/font&gt;" style="text;strokeColor=none;fillColor=none;spacingLeft=4;spacingRight=4;overflow=hidden;rotatable=0;points=[[0,0.5],[1,0.5]];portConstraint=eastwest;fontSize=12;whiteSpace=wrap;html=1;" vertex="1" parent="Jj1JD8Dldo2RHYBznY76-40">
          <mxGeometry y="26" width="160" height="30" as="geometry" />
        </mxCell>
        <mxCell id="Jj1JD8Dldo2RHYBznY76-42" value="&lt;font style=&quot;font-size: 16px;&quot;&gt;number : int&lt;/font&gt;" style="text;strokeColor=none;fillColor=none;spacingLeft=4;spacingRight=4;overflow=hidden;rotatable=0;points=[[0,0.5],[1,0.5]];portConstraint=eastwest;fontSize=12;whiteSpace=wrap;html=1;" vertex="1" parent="Jj1JD8Dldo2RHYBznY76-40">
          <mxGeometry y="56" width="160" height="30" as="geometry" />
        </mxCell>
        <mxCell id="Jj1JD8Dldo2RHYBznY76-48" value="" style="line;strokeWidth=1;rotatable=0;dashed=0;labelPosition=right;align=left;verticalAlign=middle;spacingTop=0;spacingLeft=6;points=[];portConstraint=eastwest;" vertex="1" parent="Jj1JD8Dldo2RHYBznY76-40">
          <mxGeometry y="86" width="160" height="10" as="geometry" />
        </mxCell>
        <mxCell id="Jj1JD8Dldo2RHYBznY76-43" value="&lt;font style=&quot;font-size: 16px;&quot;&gt;capacity : int&lt;/font&gt;" style="text;strokeColor=none;fillColor=none;spacingLeft=4;spacingRight=4;overflow=hidden;rotatable=0;points=[[0,0.5],[1,0.5]];portConstraint=eastwest;fontSize=12;whiteSpace=wrap;html=1;" vertex="1" parent="Jj1JD8Dldo2RHYBznY76-40">
          <mxGeometry y="96" width="160" height="30" as="geometry" />
        </mxCell>
        <mxCell id="Jj1JD8Dldo2RHYBznY76-50" value="Film" style="swimlane;fontStyle=0;childLayout=stackLayout;horizontal=1;startSize=26;horizontalStack=0;resizeParent=1;resizeParentMax=0;resizeLast=0;collapsible=1;marginBottom=0;align=center;fontSize=20;" vertex="1" parent="1">
          <mxGeometry x="570" y="110" width="160" height="126" as="geometry" />
        </mxCell>
        <mxCell id="Jj1JD8Dldo2RHYBznY76-51" value="&lt;font style=&quot;font-size: 16px;&quot;&gt;Id : int&lt;/font&gt;" style="text;strokeColor=none;fillColor=none;spacingLeft=4;spacingRight=4;overflow=hidden;rotatable=0;points=[[0,0.5],[1,0.5]];portConstraint=eastwest;fontSize=12;whiteSpace=wrap;html=1;" vertex="1" parent="Jj1JD8Dldo2RHYBznY76-50">
          <mxGeometry y="26" width="160" height="30" as="geometry" />
        </mxCell>
        <mxCell id="Jj1JD8Dldo2RHYBznY76-58" value="" style="line;strokeWidth=1;rotatable=0;dashed=0;labelPosition=right;align=left;verticalAlign=middle;spacingTop=0;spacingLeft=6;points=[];portConstraint=eastwest;" vertex="1" parent="Jj1JD8Dldo2RHYBznY76-50">
          <mxGeometry y="56" width="160" height="10" as="geometry" />
        </mxCell>
        <mxCell id="Jj1JD8Dldo2RHYBznY76-52" value="&lt;span style=&quot;font-size: 16px;&quot;&gt;name : string&lt;/span&gt;" style="text;strokeColor=none;fillColor=none;spacingLeft=4;spacingRight=4;overflow=hidden;rotatable=0;points=[[0,0.5],[1,0.5]];portConstraint=eastwest;fontSize=12;whiteSpace=wrap;html=1;" vertex="1" parent="Jj1JD8Dldo2RHYBznY76-50">
          <mxGeometry y="66" width="160" height="30" as="geometry" />
        </mxCell>
        <mxCell id="Jj1JD8Dldo2RHYBznY76-53" value="&lt;span style=&quot;font-size: 16px;&quot;&gt;description&amp;nbsp;: string&lt;/span&gt;" style="text;strokeColor=none;fillColor=none;spacingLeft=4;spacingRight=4;overflow=hidden;rotatable=0;points=[[0,0.5],[1,0.5]];portConstraint=eastwest;fontSize=12;whiteSpace=wrap;html=1;" vertex="1" parent="Jj1JD8Dldo2RHYBznY76-50">
          <mxGeometry y="96" width="160" height="30" as="geometry" />
        </mxCell>
        <mxCell id="Jj1JD8Dldo2RHYBznY76-56" value="" style="edgeStyle=entityRelationEdgeStyle;fontSize=12;html=1;endArrow=ERoneToMany;startArrow=ERmandOne;rounded=0;entryX=-0.006;entryY=0.109;entryDx=0;entryDy=0;entryPerimeter=0;exitX=0.992;exitY=0.152;exitDx=0;exitDy=0;exitPerimeter=0;" edge="1" parent="1" source="Jj1JD8Dldo2RHYBznY76-23" target="Jj1JD8Dldo2RHYBznY76-40">
          <mxGeometry width="100" height="100" relative="1" as="geometry">
            <mxPoint x="260" y="470" as="sourcePoint" />
            <mxPoint x="360" y="370" as="targetPoint" />
          </mxGeometry>
        </mxCell>
        <mxCell id="Jj1JD8Dldo2RHYBznY76-57" value="" style="edgeStyle=entityRelationEdgeStyle;fontSize=12;html=1;endArrow=ERmandOne;startArrow=ERmandOne;rounded=0;entryX=0;entryY=0.086;entryDx=0;entryDy=0;entryPerimeter=0;" edge="1" parent="1" target="Jj1JD8Dldo2RHYBznY76-50">
          <mxGeometry width="100" height="100" relative="1" as="geometry">
            <mxPoint x="510" y="209" as="sourcePoint" />
            <mxPoint x="621.1200000000001" y="209.27999999999997" as="targetPoint" />
          </mxGeometry>
        </mxCell>
      </root>
    </mxGraphModel>
  </diagram>
</mxfile>
